<?xml version="1.0" encoding="utf-8"?>
<!-- Generator: Adobe Illustrator 16.0.0, SVG Export Plug-In . SVG Version: 6.00 Build 0)  -->
<!DOCTYPE svg PUBLIC "-//W3C//DTD SVG 1.1//EN" "http://www.w3.org/Graphics/SVG/1.1/DTD/svg11.dtd">
<svg version="1.1" id="Layer_1" xmlns="http://www.w3.org/2000/svg" xmlns:xlink="http://www.w3.org/1999/xlink" x="0px" y="0px"
	 width="333.161px" height="112.137px" viewBox="0 0 333.161 112.137" enable-background="new 0 0 333.161 112.137"
	 xml:space="preserve">
<g>
	<g>
		<polygon fill="#FFFFFF" points="195.631,47.861 185.51,47.861 185.51,29.592 167.111,13.461 148.713,29.592 148.713,47.861 
			138.59,47.861 138.59,25.002 167.111,0 195.631,25.002 		"/>
		<g>
			<path fill="#FFFFFF" d="M118.947,27.564c0,0.373-0.074,0.746-0.217,1.119c-0.145,0.373-0.359,0.711-0.646,1.012
				c-0.287,0.306-0.639,0.55-1.057,0.734c-0.416,0.188-0.883,0.279-1.398,0.279c-0.574,0-1.129-0.109-1.66-0.324
				c-0.531-0.215-0.984-0.523-1.357-0.926c-0.316-0.375-0.559-0.818-0.732-1.336c-0.172-0.519-0.258-1.062-0.258-1.64
				c0-1.094,0.193-2.098,0.58-3.018c0.389-0.918,0.941-1.736,1.66-2.455c0.316-0.316,0.676-0.611,1.076-0.883
				c0.402-0.273,0.783-0.504,1.143-0.691c0.359-0.186,0.668-0.336,0.926-0.451c0.26-0.112,0.416-0.188,0.475-0.215l1.725,2.541
				c-0.316,0.115-0.668,0.271-1.057,0.453c-0.389,0.188-0.754,0.416-1.098,0.689c-0.346,0.271-0.633,0.596-0.863,0.969
				c-0.23,0.375-0.359,0.805-0.387,1.293c0.832,0,1.564,0.244,2.197,0.732C118.629,25.939,118.947,26.645,118.947,27.564z
				 M128.037,27.564c0,0.373-0.072,0.746-0.215,1.119c-0.145,0.373-0.359,0.711-0.646,1.012c-0.287,0.306-0.641,0.55-1.055,0.734
				c-0.418,0.188-0.885,0.279-1.4,0.279c-0.576,0-1.129-0.109-1.66-0.324c-0.531-0.215-0.984-0.523-1.355-0.926
				c-0.318-0.375-0.562-0.818-0.734-1.336c-0.172-0.519-0.258-1.062-0.258-1.64c0-1.094,0.193-2.098,0.582-3.018
				c0.387-0.918,0.939-1.736,1.658-2.455c0.316-0.316,0.674-0.611,1.078-0.883c0.4-0.273,0.781-0.504,1.141-0.691
				c0.359-0.186,0.668-0.336,0.926-0.451c0.26-0.112,0.416-0.188,0.477-0.215l1.723,2.541c-0.318,0.115-0.668,0.271-1.057,0.453
				c-0.387,0.188-0.752,0.416-1.098,0.689c-0.346,0.271-0.633,0.596-0.861,0.969c-0.23,0.375-0.359,0.805-0.391,1.293
				c0.834,0,1.568,0.244,2.197,0.732C127.721,25.939,128.037,26.645,128.037,27.564z"/>
			<path fill="#FFFFFF" d="M204.52,21.852c0-0.371,0.072-0.744,0.217-1.117s0.359-0.711,0.646-1.014s0.639-0.545,1.055-0.729
				c0.416-0.188,0.885-0.279,1.4-0.279c0.574,0,1.129,0.104,1.658,0.322c0.53,0.215,0.981,0.521,1.356,0.926
				c0.313,0.373,0.562,0.815,0.729,1.336c0.176,0.52,0.26,1.062,0.26,1.639c0,1.092-0.193,2.098-0.578,3.019
				c-0.391,0.918-0.939,1.735-1.66,2.454c-0.314,0.314-0.678,0.609-1.076,0.886c-0.402,0.271-0.781,0.502-1.145,0.688
				c-0.359,0.188-0.668,0.34-0.926,0.455c-0.261,0.113-0.418,0.188-0.476,0.215l-1.724-2.543c0.314-0.112,0.666-0.266,1.056-0.449
				c0.388-0.188,0.754-0.416,1.101-0.69c0.344-0.271,0.629-0.596,0.86-0.969c0.229-0.373,0.358-0.808,0.388-1.293
				c-0.834,0-1.562-0.244-2.197-0.732C204.834,23.48,204.52,22.773,204.52,21.852z M213.612,21.852c0-0.371,0.072-0.744,0.217-1.117
				c0.146-0.373,0.359-0.711,0.646-1.014s0.641-0.545,1.057-0.729c0.416-0.188,0.883-0.279,1.398-0.279
				c0.576,0,1.127,0.104,1.66,0.322c0.531,0.215,0.979,0.521,1.354,0.926c0.312,0.373,0.562,0.815,0.731,1.336
				c0.173,0.52,0.259,1.062,0.259,1.639c0,1.092-0.19,2.098-0.58,3.019c-0.392,0.918-0.938,1.735-1.66,2.454
				c-0.313,0.314-0.678,0.609-1.073,0.886c-0.404,0.271-0.783,0.502-1.146,0.688c-0.356,0.188-0.668,0.34-0.931,0.455
				c-0.256,0.113-0.416,0.188-0.473,0.215l-1.725-2.543c0.316-0.112,0.668-0.266,1.057-0.449c0.389-0.188,0.754-0.416,1.098-0.69
				c0.349-0.271,0.636-0.596,0.861-0.969c0.23-0.373,0.361-0.808,0.389-1.293c-0.834,0-1.563-0.244-2.194-0.732
				C213.928,23.48,213.612,22.773,213.612,21.852z"/>
		</g>
	</g>
	<g>
		<path fill="#FFFFFF" d="M2.006,91.201c0-10,8.15-18.15,18.151-18.15c10.001,0,18.151,8.151,18.151,18.15
			c0,10.002-8.15,18.149-18.151,18.149C10.157,109.353,2.006,101.203,2.006,91.201z M30.258,91.201c0-5.699-4.35-10.45-10.101-10.45
			c-5.75,0-10.101,4.75-10.101,10.45c0,5.698,4.351,10.448,10.101,10.448C25.908,101.652,30.258,96.902,30.258,91.201z"/>
		<path fill="#FFFFFF" d="M45.406,94.552V73.451h8V94.65c0,4.302,2.65,7,6.551,7c3.9,0,6.55-2.698,6.55-7V73.451h8v21.102
			c0,8.9-6.05,14.801-14.551,14.801S45.406,103.453,45.406,94.552z"/>
		<path fill="#FFFFFF" d="M91.356,94.552h-0.1v14.4h-8V73.451h13.401c5.8,0,10.551,4.75,10.551,10.551
			c0,4.449-2.75,8.299-6.851,9.897l11.551,15.054h-9.551L91.356,94.552z M95.756,87.8c2.15,0,3.7-1.549,3.7-3.5
			c0-1.949-1.55-3.549-3.7-3.549h-4.5V87.8H95.756z"/>
		<path fill="#FFFFFF" d="M127.805,102.402l6.05-4.948c1.55,2.448,4.1,4.397,6.55,4.397c2.35,0,3.4-0.896,3.4-2.549
			c0-1.602-1.15-2.602-4.15-3.951l-2-0.897c-5.351-2.4-8.3-6.353-8.3-11.15c0-6.2,5.15-10.25,10.8-10.25
			c3.95,0,6.951,0.95,9.951,4.45l-5.4,5.701c-1.8-2.2-2.9-2.65-4.55-2.65c-1.35,0-2.75,0.85-2.75,2.451
			c0,1.849,1.55,2.849,4.8,4.298l1.9,0.852c4.9,2.199,7.75,5.75,7.75,10.65c0,6.4-4.7,10.551-11.301,10.551
			C134.855,109.353,130.255,107.001,127.805,102.402z"/>
		<path fill="#FFFFFF" d="M164.855,81.351h-8.5v-7.897h25.052v7.897h-8.551v27.604h-8.001V81.351z"/>
		<path fill="#FFFFFF" d="M185.104,91.201c0-10,8.15-18.15,18.15-18.15c10.002,0,18.152,8.151,18.152,18.15
			c0,10.002-8.15,18.149-18.152,18.149C193.254,109.353,185.104,101.203,185.104,91.201z M213.356,91.201
			c0-5.699-4.35-10.45-10.102-10.45c-5.75,0-10.103,4.75-10.103,10.45c0,5.698,4.353,10.448,10.103,10.448
			C209.006,101.652,213.356,96.902,213.356,91.201z"/>
		<path fill="#FFFFFF" d="M235.704,94.552h-0.1v14.4h-8V73.451h13.4c5.801,0,10.551,4.75,10.551,10.551
			c0,4.449-2.75,8.299-6.85,9.897l11.551,15.054h-9.551L235.704,94.552z M240.104,87.8c2.15,0,3.701-1.549,3.701-3.5
			c0-1.949-1.551-3.549-3.701-3.549h-4.5V87.8H240.104z"/>
		<path fill="#FFFFFF" d="M261.754,73.451h8v35.502h-8V73.451z"/>
		<path fill="#FFFFFF" d="M279.854,73.451h22v7.897h-14v6h11v7.701h-11v6h14v7.9h-22V73.451z"/>
		<path fill="#FFFFFF" d="M307.102,102.402l6.051-4.948c1.551,2.448,4.102,4.397,6.551,4.397c2.353,0,3.4-0.896,3.4-2.549
			c0-1.602-1.15-2.602-4.15-3.951l-2-0.897c-5.35-2.4-8.301-6.353-8.301-11.15c0-6.2,5.15-10.25,10.801-10.25
			c3.951,0,6.951,0.95,9.951,4.45l-5.4,5.701c-1.801-2.2-2.897-2.65-4.551-2.65c-1.35,0-2.75,0.85-2.75,2.451
			c0,1.849,1.551,2.849,4.801,4.298l1.9,0.852c4.9,2.199,7.75,5.75,7.75,10.65c0,6.4-4.701,10.551-11.301,10.551
			C314.153,109.353,309.553,107.001,307.102,102.402z"/>
	</g>
</g>
</svg>
